<?xml version="1.0" encoding="utf-8"?>
<!-- Generator: Adobe Illustrator 19.0.0, SVG Export Plug-In . SVG Version: 6.00 Build 0)  -->
<svg version="1.1" id="Layer_1" xmlns="http://www.w3.org/2000/svg" xmlns:xlink="http://www.w3.org/1999/xlink" x="0px" y="0px"
	 viewBox="0 0 500 500" style="enable-background:new 0 0 500 500;" xml:space="preserve">
<style type="text/css">
	.st0{fill:#1877F2;}
	.st1{fill:#FFFFFF;}
</style>
<g id="XMLID_17_">
	<path id="XMLID_22_" class="st0" d="M432.5,250c0-100.8-81.7-182.5-182.5-182.5S67.5,149.2,67.5,250c0,91.1,66.7,166.6,154,180.3
		V302.8h-46.3V250h46.3v-40.2c0-45.7,27.2-71,68.9-71c20,0,40.9,3.6,40.9,3.6v44.9h-23c-22.7,0-29.7,14.1-29.7,28.5V250h50.6
		l-8.1,52.8h-42.5v127.5C365.8,416.6,432.5,341.1,432.5,250z"/>
	<path id="XMLID_18_" class="st1" d="M321,302.8l8.1-52.8h-50.6v-34.2c0-14.4,7.1-28.5,29.7-28.5h23v-44.9c0,0-20.9-3.6-40.9-3.6
		c-41.7,0-68.9,25.3-68.9,71V250h-46.3v52.8h46.3v127.5c9.3,1.5,18.8,2.2,28.5,2.2s19.2-0.8,28.5-2.2V302.8H321z"/>
</g>
</svg>
