<?xml version="1.0" encoding="UTF-8" standalone="no"?>
<svg
   xmlns:dc="http://purl.org/dc/elements/1.1/"
   xmlns:cc="http://creativecommons.org/ns#"
   xmlns:rdf="http://www.w3.org/1999/02/22-rdf-syntax-ns#"
   xmlns:svg="http://www.w3.org/2000/svg"
   xmlns="http://www.w3.org/2000/svg"
   xmlns:xlink="http://www.w3.org/1999/xlink"
   xmlns:sodipodi="http://sodipodi.sourceforge.net/DTD/sodipodi-0.dtd"
   xmlns:inkscape="http://www.inkscape.org/namespaces/inkscape"
   version="1.1"
   width="595.27557"
   height="841.88977"
   id="svg31"
   viewBox="0 0 595.27557 841.88977"
   sodipodi:docname="instagram-seeklogo.com.cdr">
  <metadata
     id="metadata37">
    <rdf:RDF>
      <cc:Work
         rdf:about="">
        <dc:format>image/svg+xml</dc:format>
        <dc:type
           rdf:resource="http://purl.org/dc/dcmitype/StillImage" />
      </cc:Work>
    </rdf:RDF>
  </metadata>
  <defs
     id="defs35" />
  <sodipodi:namedview
     pagecolor="#ffffff"
     bordercolor="#666666"
     borderopacity="1"
     objecttolerance="10"
     gridtolerance="10"
     guidetolerance="10"
     inkscape:pageopacity="0"
     inkscape:pageshadow="2"
     inkscape:window-width="640"
     inkscape:window-height="480"
     id="namedview33" />
  <g
     id="Layer1000">
    <defs
       id="defs10">
      <linearGradient
         id="grad1">
        <stop
           offset="0.0000%"
           stop-color="#c837ab"
           stop-opacity="1.0000"
           id="stop2" />
        <stop
           offset="51.0000%"
           stop-color="#fa5148"
           stop-opacity="1.0000"
           id="stop4" />
        <stop
           offset="100.0000%"
           stop-color="#ffdd55"
           stop-opacity="1.0000"
           id="stop6" />
      </linearGradient>
      <linearGradient
         xlink:href="#grad1"
         id="grad2"
         x1="0"
         y1="0"
         x2="0"
         y2="1"
         gradientTransform="rotate(-135,0.5,0.5)"
         gradientUnits="objectBoundingBox" />
    </defs>
    <path
       d="m 49.2902,25.6907 h 55.6878 c 12.4787,0 22.6885,10.2098 22.6885,22.6885 v 55.6877 c 0,12.4787 -10.2098,22.6885 -22.6885,22.6885 H 49.2902 c -12.4786,0 -22.6885,-10.2098 -22.6885,-22.6885 V 48.3792 c 0,-12.4787 10.2099,-22.6885 22.6885,-22.6885 z"
       style="fill:url(#grad2)"
       id="path12" />
    <defs
       id="defs20">
      <linearGradient
         id="grad3">
        <stop
           offset="0%"
           stop-color="#4366ca"
           stop-opacity="1.0000"
           id="stop14" />
        <stop
           offset="100%"
           stop-color="#dd4282"
           stop-opacity="1.0000"
           id="stop16" />
      </linearGradient>
      <linearGradient
         xlink:href="#grad3"
         id="grad4"
         x1="0"
         y1="0"
         x2="0"
         y2="1"
         gradientTransform="rotate(-17,0.5,0.5)"
         gradientUnits="objectBoundingBox" />
    </defs>
    <path
       d="m 49.2902,25.6907 h 55.6878 c 12.4787,0 22.6885,10.2098 22.6885,22.6885 v 55.6877 c 0,12.4787 -10.2098,22.6885 -22.6885,22.6885 H 49.2902 c -12.4786,0 -22.6885,-10.2098 -22.6885,-22.6885 V 48.3792 c 0,-12.4787 10.2099,-22.6885 22.6885,-22.6885 z"
       style="fill:url(#grad4);fill-opacity:0"
       id="path22" />
    <path
       d="M 60.7472,38.9725 H 93.521 c 11.475,0 20.8637,9.3886 20.8637,20.8637 V 92.61 c 0,11.475 -9.3887,20.8636 -20.8637,20.8636 H 60.7472 c -11.475,0 -20.8637,-9.3886 -20.8637,-20.8636 V 59.8362 c 0,-11.4751 9.3887,-20.8637 20.8637,-20.8637 z m 0.1335,6.5638 h 32.5068 c 7.9384,0 14.4333,6.495 14.4333,14.4334 v 32.5067 c 0,7.9384 -6.4949,14.4334 -14.4333,14.4334 H 60.8807 c -7.9383,0 -14.4333,-6.495 -14.4333,-14.4334 V 59.9697 c 0,-7.9384 6.495,-14.4334 14.4333,-14.4334 z"
       style="fill:#ffffff;fill-rule:evenodd"
       id="path24" />
    <path
       d="m 77.2371,63.7632 c 6.8471,0 12.3979,5.5507 12.3979,12.3979 0,6.8472 -5.5508,12.3979 -12.3979,12.3979 -6.8472,0 -12.398,-5.5507 -12.398,-12.3979 0,-6.8472 5.5508,-12.3979 12.398,-12.3979 z m 0,-6.8467 c 10.6285,0 19.2445,8.6161 19.2445,19.2446 0,10.6285 -8.616,19.2445 -19.2445,19.2445 -10.6285,0 -19.2446,-8.616 -19.2446,-19.2445 0,-10.6285 8.6161,-19.2446 19.2446,-19.2446 z"
       style="fill:#ffffff;fill-rule:evenodd"
       id="path26" />
    <path
       d="m 97.0367,51.8279 a 4.441,4.441 0 0 1 4.441,4.441 4.441,4.441 0 1 1 -4.441,-4.441 z"
       style="fill:#ffffff;fill-rule:evenodd"
       id="path28" />
  </g>
</svg>
