<svg xmlns="http://www.w3.org/2000/svg" viewBox="0 0 851.002 124.992"><defs><style>.cls-1{font-size:100px;font-family:Consolas-Bold, Consolas;font-weight:700;}.cls-2{fill:#fac036;}.cls-3{fill:#e48c15;}.cls-4{fill:none;stroke:#444;stroke-linecap:round;stroke-miterlimit:10;stroke-width:4px;}</style></defs><title>logooAsset 2</title><g id="Layer_2" data-name="Layer 2"><g id="Layer_1-2" data-name="Layer 1"><text class="cls-1" transform="translate(0 89.631)">&lt;</text><path class="cls-2" d="M96.59,78.06a1.549,1.549,0,0,1-2.21-.2S75.9,58.28,74.7,57.4c-1.69-1.23-5.31-3.16-8.93.57-1.51,1.55-3.97,5,.6,10.56.99,1.2,29.78,31.54,31.46,33.18,0,0,13.3,12.94,21.35,17.81a39.147,39.147,0,0,0,7.67,3.78,29.483,29.483,0,0,0,20.2-.19,39.339,39.339,0,0,0,9.48-5.2c.71-.54,1.43-1.08,2.1-1.66l1.94-1.6c1.35-1.13,2.61-2.32,3.82-3.53a64.039,64.039,0,0,0,6.55-7.66,52.347,52.347,0,0,0,4.85-8.15,36.73,36.73,0,0,0,2.76-8.09,27.686,27.686,0,0,0,.65-7.18,23.5,23.5,0,0,0-.8-5.43,20.392,20.392,0,0,0-1.17-3.27c-.33-.72-.51-1.1-.51-1.1h0c-.46-1.29-.9-2.52-1.29-3.63-1.1-3.13-2.37-6.64-3.69-10.25-.56-1.53-.82-2.22-.82-2.22l.01.03C166.08,41,160.87,27.43,160.87,27.43a3.743,3.743,0,0,0-5.84-1.68c-6.18,4.44-8.07,10.92-5.89,17.83l5.59,15.32c.79,1.71-1.39,3.69-2.85,2.5-4.59-3.74-14.3-14.05-14.3-14.05-4.34-4.16-28.83-29.27-30.47-30.8-3.3-3.07-7.46-4.65-10.63-2.32-3.24,2.38-4.14,6.06-1.01,10.08.85,1.09,25.6,27.24,25.6,27.24,1.44,1.51-.26,3.65-1.85,2.18,0,0-30.79-32.12-32.18-33.62-3.15-3.42-8.21-4.17-11.21-1.35-2.93,2.75-2.86,7.26.34,10.8,1.02,1.12,22.71,24.02,31.39,33.4.58.63,1.03,1.47.17,2.26-.01.01-.88.95-2-.25-2.36-2.52-25.93-27.08-27.24-28.41-3.01-3.06-7.05-4.51-10.3-1.53a7.274,7.274,0,0,0-.04,10.78L96.7,75.99A1.487,1.487,0,0,1,96.59,78.06Z"/><path class="cls-3" d="M142.94,52.9l2.41,2.58s-13.79,13.31-4.39,33.75c0,0,1.22,2.59-.38,3.02,0,0-1.4.78-3-3.2C137.58,89.04,128.09,69.63,142.94,52.9Z"/><path class="cls-4" d="M120.76,8.7s5.81.88,11.19,6.64a40.989,40.989,0,0,1,7.87,13.18"/><path class="cls-4" d="M134.92,2a24.329,24.329,0,0,1,8.63,8.5,36.963,36.963,0,0,1,4.67,13.05"/><path class="cls-4" d="M93.19,109.23s-5.86.39-12.35-4.09A41.107,41.107,0,0,1,70.32,93.96"/><path class="cls-4" d="M89.01,119.06a24.391,24.391,0,0,1-11.68-3.22,36.838,36.838,0,0,1-10.44-9.12"/><text class="cls-1" transform="translate(191.236 89.631)">Hola World/&gt;</text></g></g></svg>